# xmcd
#
# Track frame offsets: 
#        150
#        20867
#        45112
#        78247
#        100742
#        117402
#        136165
#        152810
#        174175
#
# Disc length: 2657 seconds
#
# Revision: 4
# Processed by: cddbd v1.5.2PL0 Copyright (c) Steve Scherf et al.
# Submitted via: ExactAudioCopy v1.3
#
DISCID=620a5f09
DTITLE=Stevie Wonder - Innervisions
DYEAR=1973
DGENRE=Soul
TTITLE0=Too High
TTITLE1=Visions
TTITLE2=Living for the City
TTITLE3=Golden Lady
TTITLE4=Higher Ground
TTITLE5=Jesus Children of America
TTITLE6=All in Love Is Fair
TTITLE7=Don't You Worry 'Bout a Thing
TTITLE8=He's Misstra Know-It-All
EXTD=
EXTT0=
EXTT1=
EXTT2=
EXTT3=
EXTT4=
EXTT5=
EXTT6=
EXTT7=
EXTT8=
PLAYORDER=
